<svg width="96" height="24" viewBox="0 0 96 24" fill="none" xmlns="http://www.w3.org/2000/svg">
<path d="M1.81323 16.08C1.2663 14.7318 0.990074 13.2891 1.00027 11.8342C1.03295 9.66705 1.7051 7.55785 2.93237 5.77138C4.16033 3.9839 5.88926 2.59927 7.90185 1.79152C9.91444 0.983765 12.1209 0.788933 14.2439 1.23151C16.3669 1.67408 18.3117 2.73431 19.8339 4.27895C21.3561 5.82359 22.3878 7.78371 22.7992 9.91296C23.2107 12.0422 22.9836 14.2456 22.1465 16.2461C21.3093 18.2467 19.8996 19.9552 18.0943 21.1568C16.2901 22.3578 14.1713 22.999 12.0039 23C10.549 22.9889 9.1105 22.6916 7.77038 22.125C6.42912 21.5579 5.2127 20.7322 4.19057 19.695C3.16844 18.6578 2.36062 17.4294 1.81323 16.08Z" stroke="url(#paint0_linear)" stroke-opacity="0.6" stroke-width="2"/>
<path d="M36.999 12C36.999 9.82442 37.6442 7.69766 38.8529 5.88872C40.0616 4.07978 41.7795 2.6699 43.7895 1.83733C45.7995 1.00477 48.0112 0.78693 50.145 1.21137C52.2788 1.63581 54.2388 2.68345 55.7772 4.22182C57.3156 5.7602 58.3632 7.72022 58.7877 9.85401C59.2121 11.9878 58.9943 14.1995 58.1617 16.2095C57.3291 18.2195 55.9192 19.9375 54.1103 21.1462C52.3014 22.3549 50.1746 23 47.999 23C45.0816 23 42.2837 21.8411 40.2208 19.7782C38.1579 17.7153 36.999 14.9174 36.999 12Z" stroke="url(#paint1_linear)" stroke-opacity="0.6" stroke-width="2"/>
<path d="M71.999 12C71.999 9.62664 72.7028 7.30654 74.0214 5.33315C75.34 3.35976 77.2141 1.8217 79.4068 0.913452C81.5995 0.00519989 84.0123 -0.232441 86.3401 0.230582C88.6679 0.693605 90.8061 1.83649 92.4843 3.51472C94.1625 5.19295 95.3054 7.33115 95.7684 9.65892C96.2315 11.9867 95.9938 14.3995 95.0856 16.5922C94.1773 18.7849 92.6393 20.6591 90.6659 21.9777C88.6925 23.2962 86.3724 24 83.999 24C80.8164 24 77.7642 22.7357 75.5137 20.4853C73.2633 18.2349 71.999 15.1826 71.999 12Z" fill="#1822B8" fill-opacity="0.25"/>
<defs>
<linearGradient id="paint0_linear" x1="11.9995" y1="0" x2="11.9995" y2="24" gradientUnits="userSpaceOnUse">
<stop stop-color="#E1A352"/>
<stop offset="1" stop-color="#E3A655"/>
</linearGradient>
<linearGradient id="paint1_linear" x1="47.999" y1="0" x2="47.999" y2="24" gradientUnits="userSpaceOnUse">
<stop stop-color="#E1A352"/>
<stop offset="1" stop-color="#E3A655"/>
</linearGradient>
</defs>
</svg>
